<?xml version="1.0" encoding="iso-8859-1"?>
<!-- Generator: Adobe Illustrator 19.0.0, SVG Export Plug-In . SVG Version: 6.00 Build 0)  -->
<svg version="1.1" id="Capa_1" xmlns="http://www.w3.org/2000/svg" xmlns:xlink="http://www.w3.org/1999/xlink" x="0px" y="0px"
	 viewBox="0 0 512 512" style="enable-background:new 0 0 512 512;" xml:space="preserve">
<rect x="240" y="45" style="fill:#07485E;" width="30" height="122"/>
<rect x="422" y="45" style="fill:#04303E;" width="30" height="122"/>
<polygon style="fill:#7F6D67;" points="512,152 512,242 502.099,251 492.201,259.701 502.099,266 512,272 512,362 180,362 180,272 
	189,266.3 197.701,260.6 189,251.3 180,242 180,152 "/>
<polygon style="fill:#635550;" points="512,152 512,242 502.099,251 492.201,259.701 502.099,266 512,272 512,362 346,362 346,152 
	"/>
<path style="fill:#7F6D67;" d="M0,0v512h90V0H0z"/>
<path style="fill:#07485E;" d="M512,30v30H255c-90.901,0-165,74.099-165,165H60c0-69.6,36.599-130.499,91.5-165H75V30H512z"/>
<rect x="346" y="30" style="fill:#04303E;" width="166" height="30"/>
<rect x="45" style="fill:#635550;" width="45" height="512"/>
<g>
	<polygon style="fill:#FCBF29;" points="391,212 391,302 361,302 361,272 331,272 331,302 301,302 301,212 331,212 331,242 361,242 
		361,212 	"/>
	<rect x="180" y="242" style="fill:#FCBF29;" width="90" height="30"/>
</g>
<g>
	<rect x="422" y="242" style="fill:#FEA832;" width="90" height="30"/>
	<polygon style="fill:#FEA832;" points="361,212 391,212 391,302 361,302 361,272 346,272 346,242 361,242 	"/>
</g>
<g>
</g>
<g>
</g>
<g>
</g>
<g>
</g>
<g>
</g>
<g>
</g>
<g>
</g>
<g>
</g>
<g>
</g>
<g>
</g>
<g>
</g>
<g>
</g>
<g>
</g>
<g>
</g>
<g>
</g>
</svg>
